<?xml version="1.0" encoding="UTF-8"?>
<svg viewBox="0 0 379.55 302.45" xmlns="http://www.w3.org/2000/svg" xmlns:xlink="http://www.w3.org/1999/xlink">
 <defs>
  <linearGradient id="w" x1=".49992" x2=".49992" y1="-1.5083" y2="1.2447" xlink:href="#t"/>
  <linearGradient id="t">
   <stop offset="0"/>
   <stop stop-opacity="0" offset="1"/>
  </linearGradient>
  <linearGradient id="ad" x1=".38735" x2=".030006" y1=".54828" y2="1.0007">
   <stop stop-color="#f1f0f3" stop-opacity="0" offset="0"/>
   <stop stop-color="#d5d2db" offset="1"/>
  </linearGradient>
  <linearGradient id="x" x1=".49136" x2=".49136" y1=".001447" y2=".59601">
   <stop stop-color="#f2f2f4" offset="0"/>
   <stop stop-color="#cccad5" offset="1"/>
  </linearGradient>
  <linearGradient id="ac" x1=".49066" x2=".49066" y1=".32502" y2=".41775">
   <stop stop-color="#c8c7cc" offset="0"/>
   <stop stop-color="#c8c7cc" stop-opacity="0" offset="1"/>
  </linearGradient>
  <linearGradient id="y" x1=".58918" x2=".58918" y1="1.0091" y2=".49952">
   <stop stop-color="#cfcfcf" offset="0"/>
   <stop stop-color="#cfcfcf" stop-opacity="0" offset="1"/>
  </linearGradient>
  <linearGradient id="ab" x1=".5" x2=".97123" y1=".57234" y2="-.000688">
   <stop stop-color="#f1f0f3" offset="0"/>
   <stop stop-color="#d5d2db" offset="1"/>
  </linearGradient>
  <linearGradient id="z" x1=".53564" x2=".53564" y1="1.7268" y2=".50004" xlink:href="#t"/>
  <linearGradient id="aa" x1=".53642" x2=".53642" y1="1.7303" y2=".73186" xlink:href="#t"/>
  <linearGradient id="u">
   <stop stop-color="#7c7c7c" offset="0"/>
   <stop stop-color="#828282" stop-opacity="0" offset="1"/>
  </linearGradient>
  <linearGradient id="v">
   <stop stop-color="#c3c3c3" stop-opacity=".686" offset="0"/>
   <stop stop-color="#4b4b4b" stop-opacity="0" offset="1"/>
  </linearGradient>
  <radialGradient id="af" cx="310.87" cy="387.57" r="68.159" gradientTransform="matrix(.0040226 0 0 .0040226 579.68 177.49)" gradientUnits="userSpaceOnUse">
   <stop stop-color="#c7c7c7" stop-opacity=".654" offset="0"/>
   <stop stop-color="#fff" stop-opacity="0" offset="1"/>
  </radialGradient>
  <radialGradient id="aj" cx="405.19" cy="525.5" r="82.777" gradientTransform="matrix(.89465 0 0 .074648 -173.9 238.9)" gradientUnits="userSpaceOnUse" xlink:href="#u"/>
  <radialGradient id="ai" cx="406.45" cy="423.97" r="133.68" gradientTransform="matrix(1.0081 0 0 .069584 -219.96 236.02)" gradientUnits="userSpaceOnUse">
   <stop stop-color="#7f7f7f" offset="0"/>
   <stop stop-color="#848484" stop-opacity="0" offset="1"/>
  </radialGradient>
  <radialGradient id="ak" cx="379.18" cy="36.347" r="82.777" gradientTransform="matrix(.062673 .1801 -.1104 .038418 226.03 195.52)" gradientUnits="userSpaceOnUse" xlink:href="#u"/>
  <radialGradient id="ah" cx="574.58" cy="195.15" r="1.6814" gradientTransform="matrix(1.7279 0 0 1.7049 -550.14 -228.67)" gradientUnits="userSpaceOnUse">
   <stop stop-color="#67ff2a" stop-opacity=".774" offset="0"/>
   <stop stop-color="#67ff2a" stop-opacity="0" offset="1"/>
  </radialGradient>
  <radialGradient id="al" cx="379.18" cy="36.347" r="82.777" gradientTransform="matrix(-.062673 .1801 .1104 .038418 151.18 195.52)" gradientUnits="userSpaceOnUse" xlink:href="#u"/>
  <radialGradient id="ag" cx="308.53" cy="465.1" r="68.159" gradientTransform="matrix(.0040226 0 0 .0040226 579.68 177.49)" gradientUnits="userSpaceOnUse" xlink:href="#v"/>
  <radialGradient id="ae" cx="344.65" cy="398.36" r="67.323" gradientTransform="matrix(.0038569 .0037417 -.0040964 .0042226 583.48 170.72)" gradientUnits="userSpaceOnUse" xlink:href="#v"/>
 </defs>
 <g fill-rule="evenodd">
  <g stroke-linecap="round">
   <path d="m111.48 238.82h154.25l17.068 52.792h-188.38l17.068-52.792z" fill="url(#aj)" opacity=".535" stroke-width=".051"/>
   <rect x="13.607" y="250.65" width="352.34" height="29.752" fill="url(#ai)" opacity=".535" stroke-width=".072"/>
   <g stroke-width=".051">
    <path d="m111.48 238.82h154.25l17.068 52.792h-188.38l17.068-52.792z" fill="url(#ak)" opacity=".535"/>
    <path d="m265.73 238.82h-154.25l-17.068 52.792h188.38l-17.068-52.792z" fill="url(#al)" opacity=".535"/>
   </g>
  </g>
  <g stroke="#000" stroke-linecap="square" stroke-linejoin="round" stroke-width=".271">
   <rect x="64.889" y="10.978" width="247.08" height="198.34" fill="url(#ab)"/>
   <rect x="64.889" y="10.978" width="247.08" height="198.34" fill="url(#ad)"/>
  </g>
  <path d="m160.47 209.17l1.9149 23.955v16.218h-17.781c0-1.22e-4 -10.421-0.36966-12.74 5.041-2.3188 5.4109-4.2596 10.434-4.2596 10.434 1.22e-4 -1.22e-4 -1.1724 3.1-1.1722 4.2595-1.22e-4 1.1593 0 5.0021 0 5.002-1.22e-4 1.22e-4 -2.44e-4 0.032532 0 0.039185 0.021118 0.38214 0.38766 3.4389 5.8226 3.4389 5.7973-1.22e-4 55.657 0 56.195 0 0.5376-1.22e-4 50.398 0 56.195 0 5.4348-1.22e-4 5.7624-3.0568 5.7836-3.4389 1.22e-4 -0.006653 0-0.039185 0-0.039185-1.53e-4 1.22e-4 0-3.8425 0-5.002-1.53e-4 -1.1595-1.1724-4.2595-1.1724-4.2595-1.53e-4 -1.22e-4 -1.9407-5.0232-4.2596-10.434-2.3188-5.4106-12.739-5.041-12.739-5.041h-17.781v-16.218l1.9539-23.955h-55.96zm16.726 24.346c0.086548-0.013245 0.18323 0 0.2735 0h21.063c0.39142 0 0.76508 0.13507 1.0552 0.35165 0.14218 0.11166 0.28934 0.27963 0.39066 0.42993 0.17306 0.27036 0.27359 0.59161 0.27359 0.93787v7.7374c0 0.42154-0.14304 0.83298-0.39075 1.1333-0.027283 0.031525-0.087799 0.087799-0.11719 0.11719-0.31189 0.29724-0.74481 0.50809-1.2115 0.50809h-21.063c-0.4064 0-0.79871-0.15884-1.0942-0.39081-0.075043-0.06189-0.17072-0.16092-0.23438-0.23447-0.24771-0.30035-0.42993-0.71179-0.42993-1.1333v-7.7374c0-0.87335 0.64841-1.5924 1.485-1.7194z" fill="#f2f2f4"/>
  <path d="m160.47 209.17l1.9149 23.955v16.218h-17.781c0-1.22e-4 -10.421-0.36966-12.74 5.041-2.3188 5.4109-4.2596 10.434-4.2596 10.434 1.22e-4 -1.22e-4 -1.1724 3.1-1.1722 4.2595-1.22e-4 1.1593 0 5.0021 0 5.002-1.22e-4 1.22e-4 -2.44e-4 0.032532 0 0.039185 0.021118 0.38214 0.38766 3.4389 5.8226 3.4389 5.7973-1.22e-4 55.657 0 56.195 0 0.5376-1.22e-4 50.398 0 56.195 0 5.4348-1.22e-4 5.7624-3.0568 5.7836-3.4389 1.22e-4 -0.006653 0-0.039185 0-0.039185-1.53e-4 1.22e-4 0-3.8425 0-5.002-1.53e-4 -1.1595-1.1724-4.2595-1.1724-4.2595-1.53e-4 -1.22e-4 -1.9407-5.0232-4.2596-10.434-2.3188-5.4106-12.739-5.041-12.739-5.041h-17.781v-16.218l1.9539-23.955h-55.96zm16.726 24.346c0.086548-0.013245 0.18323 0 0.2735 0h21.063c0.39142 0 0.76508 0.13507 1.0552 0.35165 0.14218 0.11166 0.28934 0.27963 0.39066 0.42993 0.17306 0.27036 0.27359 0.59161 0.27359 0.93787v7.7374c0 0.42154-0.14304 0.83298-0.39075 1.1333-0.027283 0.031525-0.087799 0.087799-0.11719 0.11719-0.31189 0.29724-0.74481 0.50809-1.2115 0.50809h-21.063c-0.4064 0-0.79871-0.15884-1.0942-0.39081-0.075043-0.06189-0.17072-0.16092-0.23438-0.23447-0.24771-0.30035-0.42993-0.71179-0.42993-1.1333v-7.7374c0-0.87335 0.64841-1.5924 1.485-1.7194z" fill="url(#ac)" stroke="#000" stroke-width=".186"/>
  <g stroke-linecap="square" stroke-linejoin="round" stroke-width=".378">
   <path d="m139.57 250.14h95.669c5.9058 0 8.6724 3.3306 9.4738 4.543 0.83273 1.2595 4.2393 9.2148 5.0431 12.122 0.80512 2.9121-2.8872 3.0096-6.1914 2.9968-3.3726-0.012939-107.15 0-109.73 0-3.1976 0-7.6112 0.009216-6.7176-2.7779 0.84134-2.6242 4.2012-10.207 5.2294-12.546 0.99191-2.2565 3.9635-4.338 7.225-4.338z" fill="none" stroke="url(#aa)"/>
   <path d="m139.5 257.65h95.669c5.9058 0 14.769 3.9325 14.769 6.5585 0 2.6602 0.30228 6.0634 0.28613 9.3126-0.016022 3.2495-2.9384 3.8636-6.6525 3.8336-3.7483-0.030151-107.22-0.042664-109.81-0.042664-3.1976 0-7.1236-0.28272-7.1276-3.6318-0.004089-3.373 0.070038-7.5656 0.13196-10.243 0.062012-2.7256 9.4709-5.7874 12.732-5.7874z" fill="url(#y)" stroke="url(#z)"/>
  </g>
  <path d="m162.75 269.45l-0.3708-7.1568v-16.218h52.092v16.218l-0.2918 7.1568h-51.429zm14.44-7.5477c0.086548 0.013245 0.18323 0 0.2735 0h21.063c0.39142 0 0.76508-0.13507 1.0552-0.35162 0.14218-0.11169 0.28934-0.2796 0.39066-0.42993 0.17306-0.27039 0.27359-0.59161 0.27359-0.93787v-7.7374c0-0.42154-0.14304-0.83295-0.39075-1.1333-0.027283-0.031494-0.087799-0.087799-0.11719-0.11719-0.31189-0.29724-0.74481-0.50806-1.2115-0.50806h-21.063c-0.4064 0-0.79871 0.15881-1.0942 0.39078-0.075043 0.06189-0.17072 0.16095-0.23438 0.23447-0.24771 0.30038-0.42993 0.71179-0.42993 1.1333v7.7374c0 0.87335 0.64841 1.5924 1.485 1.7194z" fill="url(#x)" opacity=".549"/>
  <path d="m154.73 254.17h65.936c4.0703 0 5.9768 1.8171 6.5292 2.4789 0.57361 0.6878 2.6688 5.0903 3.4233 6.6676 0.74094 1.5518-1.9376 1.5909-4.2143 1.584-2.3249-0.007019-73.753-0.14893-75.534-0.14893-2.2036 0-5.522 0.28137-4.5902-1.4724 1.0122-1.9074 2.7615-5.4652 3.4702-6.742 0.6835-1.232 2.7321-2.3672 4.9802-2.3672z" fill="none" stroke="url(#w)" stroke-linecap="square" stroke-linejoin="round" stroke-width=".232"/>
 </g>
 <g transform="matrix(1.6423 0 0 1.6423 -538.52 28.936)" stroke-linejoin="round">
  <path d="m446.68 104.02a4.0372 4.0372 0 1 1 -8.0745 0 4.0372 4.0372 0 1 1 8.0745 0z" fill="#f2f2f2" fill-opacity=".145" opacity=".99" stroke-opacity=".528"/>
  <g stroke="#000">
   <path d="m446.68 104.02a4.0372 4.0372 0 1 1 -8.0745 0 4.0372 4.0372 0 1 1 8.0745 0z" fill="url(#ae)" opacity=".99" stroke-width=".819"/>
   <path d="m445.67 104.02a3.0255 3.0255 0 1 1 -6.051 0 3.0255 3.0255 0 1 1 6.051 0z" fill="url(#af)" opacity=".99" stroke-width="2.669"/>
  </g>
  <path d="m445.67 104.02a3.0255 3.0255 0 1 1 -6.051 0 3.0255 3.0255 0 1 1 6.051 0z" fill="url(#ag)" opacity=".99" stroke-width="2.669"/>
  <g stroke-linecap="round">
   <path d="m441.64 102.94c-0.073181 0.001373-0.14209 0.034897-0.18835 0.091644-0.48822 0.58182-0.48822 1.4239 0 2.0057 0.55188 0.6577 1.5402 0.74403 2.1978 0.19215 0.65772-0.55188 0.74408-1.5401 0.1922-2.1978-0.05542-0.0737-0.14697-0.11079-0.23804-0.096405-0.091125 0.014374-0.16681 0.077881-0.19678 0.16508-0.029968 0.087204-0.009338 0.18382 0.05365 0.25118 0.3786 0.45119 0.3197 1.1176-0.13147 1.4962-0.45123 0.3786-1.1176 0.32034-1.4962-0.13084-0.33893-0.40388-0.33893-0.96149 0-1.3654 0.063904-0.074371 0.078247-0.17931 0.036621-0.2681-0.041565-0.088791-0.13141-0.14491-0.22943-0.1434zm1.002-0.4126c-0.066406 5.19e-4 -0.12988 0.027527-0.17627 0.075027-0.046387 0.047516-0.07196 0.11157-0.070923 0.17799v1.6018c-0.001282 0.089859 0.045959 0.17342 0.12354 0.21872 0.077637 0.045288 0.17358 0.045288 0.25122 0 0.077576-0.045303 0.12476-0.12886 0.12354-0.21872v-1.6018c0.001038-0.067093-0.025024-0.13176-0.072266-0.17938-0.047302-0.047607-0.11176-0.074158-0.17883-0.073639z" fill="#fff" opacity=".99" stroke-width=".5"/>
   <path d="m441.64 102.93c-0.073181 0.001389-0.14209 0.034912-0.18835 0.09166-0.48822 0.58182-0.48822 1.4239 0 2.0057 0.55188 0.6577 1.5402 0.74403 2.1978 0.19215 0.65772-0.55188 0.74408-1.5402 0.1922-2.1978-0.05542-0.073715-0.14697-0.11081-0.23804-0.09642-0.091125 0.014404-0.16681 0.077911-0.19678 0.1651-0.029968 0.087204-0.009338 0.18382 0.05365 0.25116 0.3786 0.4512 0.3197 1.1176-0.13147 1.4962-0.45123 0.3786-1.1176 0.32036-1.4962-0.13083-0.33893-0.40387-0.33893-0.9615 0-1.3654 0.063904-0.074356 0.078247-0.17929 0.036621-0.26808-0.041565-0.088791-0.13141-0.14493-0.22943-0.14342zm1.002-0.4126c-0.066406 5.04e-4 -0.12988 0.027512-0.17627 0.075027-0.046387 0.047516-0.07196 0.11159-0.070923 0.17798v1.6018c-0.001282 0.089844 0.045959 0.17342 0.12354 0.2187 0.077637 0.045303 0.17358 0.045303 0.25122 0 0.077576-0.045288 0.12476-0.12886 0.12354-0.2187v-1.6018c0.001038-0.067078-0.025024-0.13174-0.072266-0.17937-0.047302-0.047623-0.11176-0.074173-0.17883-0.073639z" fill="#73d216" opacity=".99" stroke-width="24.632"/>
   <path d="m441.64 102.93c-0.073181 0.001389-0.14209 0.034912-0.18835 0.09166-0.48822 0.58182-0.48822 1.4239 0 2.0057 0.55188 0.6577 1.5402 0.74403 2.1978 0.19215 0.65772-0.55188 0.74408-1.5402 0.1922-2.1978-0.05542-0.073715-0.14697-0.11081-0.23804-0.09642-0.091125 0.014404-0.16681 0.077911-0.19678 0.1651-0.029968 0.087204-0.009338 0.18382 0.05365 0.25116 0.3786 0.4512 0.3197 1.1176-0.13147 1.4962-0.45123 0.3786-1.1176 0.32036-1.4962-0.13083-0.33893-0.40387-0.33893-0.9615 0-1.3654 0.063904-0.074356 0.078247-0.17929 0.036621-0.26808-0.041565-0.088791-0.13141-0.14493-0.22943-0.14342zm1.002-0.4126c-0.066406 5.04e-4 -0.12988 0.027512-0.17627 0.075027-0.046387 0.047516-0.07196 0.11159-0.070923 0.17798v1.6018c-0.001282 0.089844 0.045959 0.17342 0.12354 0.2187 0.077637 0.045303 0.17358 0.045303 0.25122 0 0.077576-0.045288 0.12476-0.12886 0.12354-0.2187v-1.6018c0.001038-0.067078-0.025024-0.13174-0.072266-0.17937-0.047302-0.047623-0.11176-0.074173-0.17883-0.073639z" fill="none" opacity=".99" stroke-width=".5"/>
   <path d="m441.91 100.49c-5.8322 0.99371-1.7157 10.003 2.8438 6.5312 3.3142-2.3283 0.96198-7.1858-2.8438-6.5312z" fill="url(#ah)" opacity=".99" stroke-width="24.632"/>
  </g>
 </g>
 <g fill="#bfbfbf" fill-rule="evenodd">
  <rect x="72.365" y="17.903" width="230.53" height="172.16" stroke="#000" stroke-linecap="square" stroke-linejoin="round" stroke-width=".26"/>
  <g stroke-opacity=".251" stroke-width=".312">
   <path d="m106.68 134.03c-14.428 0.036957-26.441 1.8527-34.654 3.5771v52.094h193.8c-20.026-9.507-72.954-34.408-102.33-45.95-20.595-7.4625-40.271-9.7629-56.819-9.7205z"/>
   <path d="m170.4 17.66c17.356 7.5366 50.43 25.3 74.114 58.975 21.599 30.712 45.107 48.028 59.104 56.484v-115.46h-133.22z"/>
  </g>
 </g>
</svg>
