<?xml version="1.0" encoding="UTF-8"?>
<svg viewBox="0 0 500 500" xmlns="http://www.w3.org/2000/svg">
 <defs>
  <linearGradient id="a" x1=".47573" x2="-.13107" y1=".60156" y2="-.125" spreadMethod="reflect">
   <stop stop-color="#263d42" offset="0"/>
   <stop stop-color="#9acde7" offset="1"/>
  </linearGradient>
 </defs>
 <g fill-rule="evenodd" font-size="12" stroke="#000" stroke-linejoin="bevel" stroke-width="3.75">
  <g fill="#383838">
   <path transform="translate(-6.818 55.518)" d="m79.869 270.13h352.59l60.389 60.389-443.17 2.922 30.194-63.311z"/>
   <path d="m42.856 387.99v15.584l442.2-2.922v-14.61l-442.2 1.948z"/>
   <path d="m73.05 325.65c-4.5804-2.238-1.079-5.305-0.974-5.844 1.948 0 353.56-0.974 353.56-0.974 0.395 0.27 3.606 2.363 0 5.844-6.818 0.974-352.59 2.922-352.59 0.974z"/>
  </g>
  <path d="m71.102 318.84-1.948-207.46s7.7921-17.532 18.506-18.506 331.16 0.974 331.16 0.974 5.844 1.948 6.818 8.7659-0.974 215.26-0.974 215.26l-353.56 0.974z" fill="#383838"/>
  <path d="m87.661 114.29s3.8961-7.792 10.714-7.792h301.94s8.766 5.844 8.766 11.688v181.17s0.974 6.818-9.74 7.792-302.92-1.948-302.92-1.948-8.7661-0.974-9.7401-5.844c2.922-8.766 0-178.24 0.974-185.06z" fill="url(#a)"/>
 </g>
 <g fill-rule="evenodd" font-size="12" stroke="#000" stroke-linejoin="bevel" stroke-width="3.75">
  <path d="m75.972 330.52 346.75 0.974 42.856 42.856-408.11-1.948 18.506-41.882z" fill="#595959"/>
  <path d="m56.492 372.4v7.792h408.11v-5.844l-408.11-1.948z" fill="#4c4c4d"/>
 </g>
 <g fill="none" font-size="12" stroke="#000" stroke-width="1.25">
  <path d="m76.25 338.12c1.25 0 350 2.5 350 2.5"/>
  <path d="m72.5 350h363.75"/>
  <path d="m66.875,360 381.25,1.875-1.25.625"/>
 </g>
 <g fill="none" font-size="12" stroke="#000" stroke-width="1.25">
  <path d="m111.25 333.75-13.125 36.875"/>
  <path d="m170 334.38s-8.75 35-8.75 35.625"/>
  <path d="m377.5 333.75 22.5 37.5"/>
  <path d="m316.25 332.5 5.625 36.875"/>
  <path d="m246.88 334.38 1.875 36.25"/>
 </g>
 <path d="m93.354 261.08c0-1.582-3.1645-132.91 6.3291-143.99 14.24-4.747 221.52-1.583 221.52-1.583s-226.27 3.165-227.85 145.57z" fill="#fff" fill-opacity=".5" fill-rule="evenodd"/>
 <path d="m170.89 367.09s264.24 11.076 264.24-1.583-15.823-31.645-15.823-31.645 18.987 31.645-248.42 33.228z" fill="#fff" fill-opacity=".31111" fill-rule="evenodd"/>
</svg>
