<svg width="51" height="51" viewBox="0 0 51 51" fill="none" xmlns="http://www.w3.org/2000/svg">
<path d="M0.982178 24.9984C0.982178 34.8904 6.73376 43.4503 15.0776 47.5007L3.1514 14.8274C1.75626 17.9327 0.982178 21.3801 0.982178 24.9984ZM42.8634 23.7383C42.8634 20.651 41.7563 18.5088 40.8022 16.8436C39.5331 14.7824 38.3449 13.0362 38.3449 10.984C38.3449 8.6888 40.0911 6.54659 42.5394 6.54659C42.6474 6.54659 42.7554 6.55559 42.8634 6.56459C38.4169 2.48718 32.4853 0.00292969 25.9777 0.00292969C17.2468 0.00292969 9.56004 4.48538 5.08659 11.2721C5.67165 11.2901 6.22971 11.2991 6.69775 11.2991C9.30802 11.2991 13.3584 10.984 13.3584 10.984C14.7086 10.903 14.8616 12.8832 13.5204 13.0452C13.5204 13.0452 12.1613 13.2073 10.6582 13.2793L19.7671 40.363L25.2396 23.9543L21.3422 13.2793C19.9921 13.1983 18.723 13.0452 18.723 13.0452C17.3728 12.9642 17.5348 10.903 18.885 10.984C18.885 10.984 23.0164 11.2991 25.4736 11.2991C28.0839 11.2991 32.1343 10.984 32.1343 10.984C33.4844 10.903 33.6375 12.8832 32.2963 13.0452C32.2963 13.0452 30.9372 13.2073 29.434 13.2793L38.4619 40.156L41.0452 31.9831C42.1883 28.4098 42.8634 25.8805 42.8634 23.7383ZM26.4187 27.1857L18.912 48.9859C21.1532 49.6429 23.5204 50.003 25.9777 50.003C28.885 50.003 31.6843 49.4989 34.2765 48.5898C34.2135 48.4818 34.1505 48.3648 34.0965 48.2478L26.4187 27.1857ZM47.9219 13.0092C48.0299 13.8013 48.0929 14.6564 48.0929 15.5835C48.0929 18.1218 47.6159 20.975 46.1937 24.5394L38.552 46.6096C45.9867 42.2802 50.9822 34.2244 50.9822 24.9984C50.9822 20.651 49.8751 16.5646 47.9219 13.0092Z" fill="white"/>
</svg>
