<svg width="54" height="60" viewBox="0 0 54 60" fill="none" xmlns="http://www.w3.org/2000/svg">
<path d="M0.996646 0.0105726C0.996646 0.243169 0.986065 0.401758 0.996646 0.560346C1.39874 4.95854 1.80084 9.35673 2.19236 13.7655C2.74259 20.0033 3.28225 26.2411 3.83249 32.4684C4.4568 39.4674 5.09169 46.4559 5.69483 53.4549C5.73716 53.9624 5.91704 54.1844 6.39321 54.3113C13.1654 56.1721 19.9164 58.0434 26.6885 59.8936C27.1435 60.0205 27.6938 60.0416 28.1488 59.9148C34.9421 58.054 41.7248 56.1615 48.5182 54.2902C49.0366 54.1421 49.2165 53.9095 49.2589 53.3809C49.4705 50.7378 49.7244 48.0841 49.9572 45.4409C50.3488 41.0639 50.7297 36.6868 51.1212 32.3098C51.5762 27.1715 52.0418 22.0438 52.4968 16.9055C52.8354 13.0783 53.1952 9.26157 53.5338 5.4343C53.6925 3.63696 53.8301 1.83963 53.9782 0H0.996646V0.0105726ZM43.7565 15.2774C43.4073 19.1469 43.0581 23.0271 42.7089 26.8966C42.3068 31.3477 41.9047 35.7987 41.5026 40.2392C41.3862 41.5185 41.2169 42.7978 41.1852 44.0876C41.164 44.7748 40.8677 44.9546 40.2963 45.1132C36.2119 46.2127 32.138 47.344 28.0641 48.4647C27.8842 48.5175 27.7149 48.581 27.535 48.6338C27.4716 48.6021 27.4081 48.581 27.334 48.5492C22.9744 47.3651 18.6148 46.1704 14.2553 44.9651C14.0754 44.9123 13.8426 44.6268 13.8214 44.4259C13.5146 41.1273 13.2394 37.8287 12.9432 34.4666H19.5989C19.7153 35.7882 19.8423 37.1309 19.9481 38.4842C20.0433 39.7317 20.0328 39.7317 21.2073 40.0489C23.313 40.6092 25.4293 41.159 27.535 41.7088L27.5139 41.6559C29.8207 41.0427 32.1274 40.4401 34.4342 39.7846C34.6458 39.7212 34.8892 39.3828 34.9209 39.1502C35.0585 38.1353 35.1326 37.1097 35.2172 36.0948C35.3548 34.456 35.4923 32.8173 35.6405 31.1045H27.5139L27.535 31.0622C27.4821 31.0622 27.4186 31.0622 27.3657 31.0622H12.6363C12.4352 28.8737 12.2448 26.7063 12.0437 24.4755H27.3763C27.4292 24.4755 27.4927 24.4755 27.5456 24.4755L27.5245 24.4332H36.233C36.4341 22.1601 36.6351 19.9399 36.8362 17.6773H27.5139L27.535 17.635C27.4821 17.635 27.4186 17.635 27.3657 17.635C22.1491 17.6456 16.9324 17.6456 11.7157 17.6562C11.6416 17.6562 11.5676 17.6245 11.43 17.5822C11.2395 15.4254 11.0385 13.2686 10.848 11.0483H27.3657C27.4186 11.0483 27.4821 11.0483 27.535 11.0483L27.5139 11.006H44.1057C43.9893 12.4862 43.8729 13.8818 43.7565 15.2774Z" fill="white"/>
</svg>
